<svg width="59" height="54" viewBox="0 0 59 54" fill="none" xmlns="http://www.w3.org/2000/svg">
<path d="M53.7943 8.75958V26.2858L38.6208 35.0453L29.287 29.6537H29.28L23.4473 26.2858V8.75958L38.6208 0L53.7943 8.75958Z" fill="url(#paint0_linear)"/>
<path d="M58.9012 37.5871V48.5314L49.4274 54L42.0403 49.7357H42.0333L39.9467 48.5314V37.5871L49.4274 32.1185L58.9012 37.5871Z" fill="url(#paint1_linear)"/>
<path d="M35.7245 35.9275V41.7392L17.8623 52.0491L6.72199 45.6149C6.71499 45.6149 6.71497 45.6079 6.70797 45.6079L0 41.7357V21.1111L17.8623 10.8041L21.2373 12.75V27.56L22.3366 28.1972C22.3436 28.1972 22.3506 28.2042 22.3576 28.2105L35.7245 35.9275Z" fill="url(#paint2_linear)"/>
<g style="mix-blend-mode:screen" opacity="0.4">
<g style="mix-blend-mode:screen" opacity="0.4">
<path d="M51.6937 9.97095L25.5479 25.0674V9.97095L38.6208 2.4227L51.6937 9.97095Z" fill="white"/>
</g>
</g>
<g style="mix-blend-mode:screen" opacity="0.2">
<g style="mix-blend-mode:screen" opacity="0.2">
<path d="M56.7166 38.7495L42.0473 47.2178V38.7985L49.4274 34.5413L56.7166 38.7495Z" fill="white"/>
</g>
</g>
<g style="mix-blend-mode:screen" opacity="0.2">
<g style="mix-blend-mode:screen" opacity="0.2">
<path d="M19.1338 13.9621V22.3225L2.10062 32.1632V22.3295L17.8623 13.2268L19.1338 13.9621Z" fill="white"/>
</g>
</g>
<g style="mix-blend-mode:multiply" opacity="0.3">
<g style="mix-blend-mode:multiply" opacity="0.3">
<path d="M35.7243 35.9275V41.7393L17.862 52.0491L6.72171 45.6149C8.65427 46.5385 10.5728 47.5125 12.4774 48.4927L15.3342 49.9842C16.1745 50.4253 17.0077 50.8734 17.841 51.3286C17.848 51.3209 17.855 51.3209 17.862 51.3139C19.2204 50.4736 20.5788 49.6334 21.9512 48.8218C23.4216 47.9389 24.8991 47.0503 26.3835 46.1884C27.8679 45.3264 29.3454 44.4456 30.8368 43.5913L34.926 41.2666L35.01 36.3092L32.0762 34.5026L28.8062 32.4433C26.6426 31.0646 24.4789 29.6712 22.3573 28.2071L35.7243 35.9275Z" fill="black"/>
</g>
</g>
<g style="mix-blend-mode:multiply" opacity="0.3">
<g style="mix-blend-mode:multiply" opacity="0.3">
<path d="M53.7942 12.722V26.2815L38.6207 35.0411L29.287 29.6495C30.9395 30.3777 32.5429 31.1822 34.1604 31.9812L36.5621 33.2065L38.5927 34.2708C39.7271 33.5566 40.8754 32.8704 42.0237 32.1702C43.2631 31.407 44.5375 30.6851 45.7909 29.9436C47.0442 29.202 48.3186 28.4801 49.593 27.7589C50.7343 27.1 51.8967 26.4628 53.059 25.8334C53.08 24.8531 53.108 23.8651 53.15 22.8855C53.185 21.7575 53.2341 20.6301 53.2971 19.4965C53.4119 17.239 53.566 14.9774 53.7942 12.722Z" fill="black"/>
</g>
</g>
<g style="mix-blend-mode:multiply" opacity="0.3">
<g style="mix-blend-mode:multiply" opacity="0.3">
<path d="M58.9014 38.5114V48.5313L49.4276 53.9999L42.0404 49.7357C43.3778 50.2608 44.6662 50.863 45.9546 51.4722C46.5987 51.7866 47.2429 52.0884 47.8801 52.4175L49.3926 53.1877L51.3952 51.942L53.7479 50.5486C54.5321 50.0725 55.3303 49.6383 56.1216 49.1902C56.7938 48.8051 57.473 48.4317 58.1592 48.0699C58.1802 47.3907 58.1942 46.7108 58.2432 46.0253C58.2852 45.1913 58.3202 44.3588 58.3902 43.5185C58.5023 41.8513 58.6633 40.1778 58.9014 38.5114Z" fill="black"/>
</g>
</g>
<g style="mix-blend-mode:multiply" opacity="0.3">
<g style="mix-blend-mode:multiply" opacity="0.3">
<path d="M49.4275 32.1185C48.7342 32.7417 48.006 33.3019 47.2708 33.855C46.5356 34.4082 45.7864 34.9334 45.0302 35.4375C44.652 35.7036 44.2599 35.941 43.8818 36.1867C43.5037 36.4325 43.1116 36.6909 42.7195 36.9219C42.0753 37.3134 41.4241 37.6985 40.7729 38.0703C40.7589 38.7138 40.7519 39.3517 40.7169 39.9959C40.6889 40.7941 40.6469 41.5986 40.5768 42.3969C40.5488 42.8037 40.5138 43.2028 40.4718 43.6019C40.4298 44.001 40.3948 44.4065 40.3388 44.8063C40.2267 45.6115 40.1217 46.4097 39.9467 47.215V37.5871L49.4275 32.1185Z" fill="black"/>
</g>
</g>
<g style="mix-blend-mode:multiply" opacity="0.3">
<g style="mix-blend-mode:multiply" opacity="0.3">
<path d="M17.8623 10.8071C16.4689 11.8364 15.0404 12.7957 13.612 13.7549C12.1766 14.7002 10.7272 15.6378 9.27073 16.5488C8.54252 17.0102 7.8073 17.4513 7.07209 17.9002L4.86642 19.2369C3.52202 20.0211 2.18464 20.827 0.826237 21.5966C0.812233 22.9837 0.819235 24.3694 0.777222 25.7565L0.721213 28.0735L0.630182 30.3918C0.602173 31.1691 0.574169 31.9393 0.525155 32.7088L0.392114 35.0272C0.287083 36.5747 0.175052 38.1221 0 39.6696V21.1141L17.8623 10.8071Z" fill="black"/>
</g>
</g>
<g style="mix-blend-mode:multiply" opacity="0.3">
<g style="mix-blend-mode:multiply" opacity="0.3">
<path d="M38.6235 0C37.4612 0.902566 36.2569 1.73651 35.0455 2.56906C33.8341 3.4016 32.6088 4.19424 31.3835 4.97847C30.7673 5.37759 30.137 5.7487 29.5209 6.13381C28.9047 6.51892 28.2815 6.91104 27.6443 7.27515C26.524 7.93264 25.4036 8.60554 24.2693 9.24273C24.2553 10.293 24.2484 11.3433 24.2064 12.3937C24.1784 13.5973 24.1293 14.8094 24.0663 16.0207C24.0382 16.6229 24.0032 17.2321 23.9542 17.8336C23.9052 18.435 23.8842 19.0456 23.8282 19.6541C23.7232 20.8578 23.6111 22.0698 23.4501 23.2812V8.75958L38.6235 0Z" fill="black"/>
</g>
</g>
<defs>
<linearGradient id="paint0_linear" x1="38.6208" y1="1.22659" x2="38.6208" y2="34.3444" gradientUnits="userSpaceOnUse">
<stop stop-color="#00F3FF"/>
<stop offset="0.238" stop-color="#00EFFC"/>
<stop offset="0.44" stop-color="#00E5F4"/>
<stop offset="0.629" stop-color="#00D3E7"/>
<stop offset="0.81" stop-color="#00BAD4"/>
<stop offset="0.983" stop-color="#009BBC"/>
<stop offset="1" stop-color="#0098BA"/>
</linearGradient>
<linearGradient id="paint1_linear" x1="49.4239" y1="33.0813" x2="49.4239" y2="51.4837" gradientUnits="userSpaceOnUse">
<stop stop-color="#3E6896"/>
<stop offset="0.247" stop-color="#355881"/>
<stop offset="0.75" stop-color="#1F324E"/>
<stop offset="1" stop-color="#131D32"/>
</linearGradient>
<linearGradient id="paint2_linear" x1="10.0386" y1="16.001" x2="23.6616" y2="45.7961" gradientUnits="userSpaceOnUse">
<stop stop-color="#49A09D"/>
<stop offset="0.149" stop-color="#4A989B"/>
<stop offset="0.375" stop-color="#4E8396"/>
<stop offset="0.65" stop-color="#54618E"/>
<stop offset="0.96" stop-color="#5D3283"/>
<stop offset="1" stop-color="#5F2C82"/>
</linearGradient>
</defs>
</svg>
